<mxfile host="app.diagrams.net" modified="2023-11-15T17:32:24.273Z" agent="Mozilla/5.0 (Windows NT 10.0; Win64; x64) AppleWebKit/537.36 (KHTML, like Gecko) Chrome/119.0.0.0 Safari/537.36" etag="x02oAhGoeTCOUjCn0RRD" version="22.1.1" type="device">
  <diagram name="Страница — 1" id="NOBkuHgE1tFx1OIeIQzs">
    <mxGraphModel dx="1588" dy="792" grid="1" gridSize="10" guides="1" tooltips="1" connect="1" arrows="1" fold="1" page="1" pageScale="1" pageWidth="827" pageHeight="1169" math="0" shadow="0">
      <root>
        <mxCell id="0" />
        <mxCell id="1" parent="0" />
        <mxCell id="gJmVssM9Ugrq67nuFQSi-14" value="&lt;u&gt;:System Boundary&lt;/u&gt;" style="text;html=1;align=center;verticalAlign=middle;resizable=0;points=[];autosize=1;strokeColor=none;fillColor=none;" parent="1" vertex="1">
          <mxGeometry x="235" y="270" width="120" height="30" as="geometry" />
        </mxCell>
        <mxCell id="gJmVssM9Ugrq67nuFQSi-15" value="&lt;u&gt;: System Control&lt;/u&gt;" style="text;html=1;align=center;verticalAlign=middle;resizable=0;points=[];autosize=1;strokeColor=none;fillColor=none;" parent="1" vertex="1">
          <mxGeometry x="375" y="270" width="110" height="30" as="geometry" />
        </mxCell>
        <mxCell id="gJmVssM9Ugrq67nuFQSi-16" value=": &lt;u&gt;Product Category&lt;/u&gt;" style="text;html=1;align=center;verticalAlign=middle;resizable=0;points=[];autosize=1;strokeColor=none;fillColor=none;" parent="1" vertex="1">
          <mxGeometry x="495" y="270" width="120" height="30" as="geometry" />
        </mxCell>
        <mxCell id="gJmVssM9Ugrq67nuFQSi-18" value=": &lt;u&gt;Artisan&lt;/u&gt;" style="text;html=1;align=center;verticalAlign=middle;resizable=0;points=[];autosize=1;strokeColor=none;fillColor=none;" parent="1" vertex="1">
          <mxGeometry x="670" y="280" width="70" height="30" as="geometry" />
        </mxCell>
        <mxCell id="gJmVssM9Ugrq67nuFQSi-19" value=": &lt;u&gt;Artisan&#39;s &lt;br&gt;Profile &lt;br&gt;With &lt;br&gt;Catogryes &lt;br&gt;of Products&lt;/u&gt;" style="text;html=1;align=center;verticalAlign=middle;resizable=0;points=[];autosize=1;strokeColor=none;fillColor=none;" parent="1" vertex="1">
          <mxGeometry x="810" y="275" width="80" height="90" as="geometry" />
        </mxCell>
        <mxCell id="gJmVssM9Ugrq67nuFQSi-21" value=": &lt;u&gt;Artisan&#39;s &lt;br&gt;Item Details&lt;br&gt;Within a&lt;br&gt;Catogry&lt;/u&gt;" style="text;html=1;align=center;verticalAlign=middle;resizable=0;points=[];autosize=1;strokeColor=none;fillColor=none;" parent="1" vertex="1">
          <mxGeometry x="925" y="275" width="90" height="70" as="geometry" />
        </mxCell>
        <mxCell id="gJmVssM9Ugrq67nuFQSi-23" value=": &lt;u&gt;Customer&lt;/u&gt;" style="text;html=1;align=center;verticalAlign=middle;resizable=0;points=[];autosize=1;strokeColor=none;fillColor=none;" parent="1" vertex="1">
          <mxGeometry x="1040" y="280" width="80" height="30" as="geometry" />
        </mxCell>
        <mxCell id="gJmVssM9Ugrq67nuFQSi-27" value=": &lt;u&gt;Customer&#39;s&amp;nbsp;&lt;br&gt;Request for Artisan`s &lt;br&gt;Product&lt;br&gt;&lt;/u&gt;" style="text;html=1;align=center;verticalAlign=middle;resizable=0;points=[];autosize=1;strokeColor=none;fillColor=none;" parent="1" vertex="1">
          <mxGeometry x="1140" y="285" width="140" height="60" as="geometry" />
        </mxCell>
        <mxCell id="gJmVssM9Ugrq67nuFQSi-29" value=": Notification of&lt;br&gt;&lt;u&gt;Customer Request&lt;br&gt;Acceptance/Rejection&lt;span style=&quot;white-space: pre;&quot;&gt;&#x9;&lt;/span&gt;&lt;br&gt;&lt;/u&gt;" style="text;html=1;align=center;verticalAlign=middle;resizable=0;points=[];autosize=1;strokeColor=none;fillColor=none;" parent="1" vertex="1">
          <mxGeometry x="1280" y="285" width="160" height="60" as="geometry" />
        </mxCell>
        <mxCell id="gJmVssM9Ugrq67nuFQSi-31" value=": Inovice for &lt;br&gt;Payment of &lt;br&gt;Accepted&amp;nbsp;&lt;br&gt;&lt;u&gt;Customer`s Request&lt;span style=&quot;white-space: pre;&quot;&gt;&#x9;&lt;/span&gt;&lt;br&gt;&lt;/u&gt;" style="text;html=1;align=center;verticalAlign=middle;resizable=0;points=[];autosize=1;strokeColor=none;fillColor=none;" parent="1" vertex="1">
          <mxGeometry x="1441" y="280" width="160" height="70" as="geometry" />
        </mxCell>
        <mxCell id="gJmVssM9Ugrq67nuFQSi-33" value=": Customer`s&lt;br&gt;&lt;u&gt;Digital&amp;nbsp;&lt;br&gt;Wallet&lt;span style=&quot;white-space: pre;&quot;&gt;&#x9;&lt;/span&gt;&lt;br&gt;&lt;/u&gt;" style="text;html=1;align=center;verticalAlign=middle;resizable=0;points=[];autosize=1;strokeColor=none;fillColor=none;" parent="1" vertex="1">
          <mxGeometry x="1610" y="285" width="90" height="60" as="geometry" />
        </mxCell>
        <mxCell id="gJmVssM9Ugrq67nuFQSi-35" value=": Customer`s&lt;br&gt;&lt;u&gt;Payment for Invoice&lt;br&gt;&lt;/u&gt;" style="text;html=1;align=center;verticalAlign=middle;resizable=0;points=[];autosize=1;strokeColor=none;fillColor=none;" parent="1" vertex="1">
          <mxGeometry x="1709" y="295" width="130" height="40" as="geometry" />
        </mxCell>
        <mxCell id="gJmVssM9Ugrq67nuFQSi-37" value=": Notification of&amp;nbsp;&lt;br&gt;&lt;u&gt;Customer`s Payment&lt;br&gt;Provided&lt;br&gt;&lt;/u&gt;" style="text;html=1;align=center;verticalAlign=middle;resizable=0;points=[];autosize=1;strokeColor=none;fillColor=none;" parent="1" vertex="1">
          <mxGeometry x="1879" y="285" width="140" height="60" as="geometry" />
        </mxCell>
        <mxCell id="gJmVssM9Ugrq67nuFQSi-39" value=": Customer`s Feedback&lt;br&gt;&lt;u&gt;&amp;amp; Ratings for Artisan`s&amp;nbsp;&lt;br&gt;Item Obtained&lt;br&gt;&lt;/u&gt;" style="text;html=1;align=center;verticalAlign=middle;resizable=0;points=[];autosize=1;strokeColor=none;fillColor=none;" parent="1" vertex="1">
          <mxGeometry x="2031" y="290" width="150" height="60" as="geometry" />
        </mxCell>
        <mxCell id="gJmVssM9Ugrq67nuFQSi-43" value=": 3rd Party Digital Wallet&lt;br&gt;&lt;u&gt;SW Boundary&lt;br&gt;&lt;/u&gt;" style="text;html=1;align=center;verticalAlign=middle;resizable=0;points=[];autosize=1;strokeColor=none;fillColor=none;" parent="1" vertex="1">
          <mxGeometry x="2184" y="300" width="150" height="40" as="geometry" />
        </mxCell>
        <mxCell id="gJmVssM9Ugrq67nuFQSi-45" value=": 3rd Party Chat/Forum&lt;br&gt;&lt;u&gt;SW BOundary&lt;br&gt;&lt;/u&gt;" style="text;html=1;align=center;verticalAlign=middle;resizable=0;points=[];autosize=1;strokeColor=none;fillColor=none;" parent="1" vertex="1">
          <mxGeometry x="2349" y="300" width="150" height="40" as="geometry" />
        </mxCell>
        <mxCell id="gJmVssM9Ugrq67nuFQSi-46" value="" style="shape=umlLifeline;perimeter=lifelinePerimeter;whiteSpace=wrap;html=1;container=1;dropTarget=0;collapsible=0;recursiveResize=0;outlineConnect=0;portConstraint=eastwest;newEdgeStyle={&quot;curved&quot;:0,&quot;rounded&quot;:0};participant=umlActor;" parent="1" vertex="1">
          <mxGeometry x="60" y="220" width="20" height="2120" as="geometry" />
        </mxCell>
        <mxCell id="gJmVssM9Ugrq67nuFQSi-71" value="" style="html=1;points=[[0,0,0,0,5],[0,1,0,0,-5],[1,0,0,0,5],[1,1,0,0,-5]];perimeter=orthogonalPerimeter;outlineConnect=0;targetShapes=umlLifeline;portConstraint=eastwest;newEdgeStyle={&quot;curved&quot;:0,&quot;rounded&quot;:0};" parent="gJmVssM9Ugrq67nuFQSi-46" vertex="1">
          <mxGeometry x="5" y="100" width="10" height="30" as="geometry" />
        </mxCell>
        <mxCell id="gJmVssM9Ugrq67nuFQSi-82" value="" style="html=1;points=[[0,0,0,0,5],[0,1,0,0,-5],[1,0,0,0,5],[1,1,0,0,-5]];perimeter=orthogonalPerimeter;outlineConnect=0;targetShapes=umlLifeline;portConstraint=eastwest;newEdgeStyle={&quot;curved&quot;:0,&quot;rounded&quot;:0};" parent="gJmVssM9Ugrq67nuFQSi-46" vertex="1">
          <mxGeometry x="5" y="160" width="10" height="30" as="geometry" />
        </mxCell>
        <mxCell id="gJmVssM9Ugrq67nuFQSi-179" value="" style="html=1;points=[[0,0,0,0,5],[0,1,0,0,-5],[1,0,0,0,5],[1,1,0,0,-5]];perimeter=orthogonalPerimeter;outlineConnect=0;targetShapes=umlLifeline;portConstraint=eastwest;newEdgeStyle={&quot;curved&quot;:0,&quot;rounded&quot;:0};" parent="gJmVssM9Ugrq67nuFQSi-46" vertex="1">
          <mxGeometry x="5" y="1440" width="10" height="30" as="geometry" />
        </mxCell>
        <mxCell id="gJmVssM9Ugrq67nuFQSi-197" value="" style="html=1;points=[[0,0,0,0,5],[0,1,0,0,-5],[1,0,0,0,5],[1,1,0,0,-5]];perimeter=orthogonalPerimeter;outlineConnect=0;targetShapes=umlLifeline;portConstraint=eastwest;newEdgeStyle={&quot;curved&quot;:0,&quot;rounded&quot;:0};" parent="gJmVssM9Ugrq67nuFQSi-46" vertex="1">
          <mxGeometry x="5" y="1740" width="10" height="40" as="geometry" />
        </mxCell>
        <mxCell id="gJmVssM9Ugrq67nuFQSi-48" value="" style="shape=umlLifeline;perimeter=lifelinePerimeter;whiteSpace=wrap;html=1;container=1;dropTarget=0;collapsible=0;recursiveResize=0;outlineConnect=0;portConstraint=eastwest;newEdgeStyle={&quot;curved&quot;:0,&quot;rounded&quot;:0};participant=umlActor;" parent="1" vertex="1">
          <mxGeometry x="150" y="220" width="20" height="2110" as="geometry" />
        </mxCell>
        <mxCell id="gJmVssM9Ugrq67nuFQSi-97" value="" style="html=1;points=[[0,0,0,0,5],[0,1,0,0,-5],[1,0,0,0,5],[1,1,0,0,-5]];perimeter=orthogonalPerimeter;outlineConnect=0;targetShapes=umlLifeline;portConstraint=eastwest;newEdgeStyle={&quot;curved&quot;:0,&quot;rounded&quot;:0};" parent="gJmVssM9Ugrq67nuFQSi-48" vertex="1">
          <mxGeometry x="5" y="260" width="10" height="30" as="geometry" />
        </mxCell>
        <mxCell id="gJmVssM9Ugrq67nuFQSi-111" value="" style="html=1;points=[[0,0,0,0,5],[0,1,0,0,-5],[1,0,0,0,5],[1,1,0,0,-5]];perimeter=orthogonalPerimeter;outlineConnect=0;targetShapes=umlLifeline;portConstraint=eastwest;newEdgeStyle={&quot;curved&quot;:0,&quot;rounded&quot;:0};" parent="gJmVssM9Ugrq67nuFQSi-48" vertex="1">
          <mxGeometry x="5" y="335" width="10" height="30" as="geometry" />
        </mxCell>
        <mxCell id="gJmVssM9Ugrq67nuFQSi-130" value="" style="html=1;points=[[0,0,0,0,5],[0,1,0,0,-5],[1,0,0,0,5],[1,1,0,0,-5]];perimeter=orthogonalPerimeter;outlineConnect=0;targetShapes=umlLifeline;portConstraint=eastwest;newEdgeStyle={&quot;curved&quot;:0,&quot;rounded&quot;:0};" parent="gJmVssM9Ugrq67nuFQSi-48" vertex="1">
          <mxGeometry x="135" y="560" width="10" height="30" as="geometry" />
        </mxCell>
        <mxCell id="gJmVssM9Ugrq67nuFQSi-131" value="" style="html=1;points=[[0,0,0,0,5],[0,1,0,0,-5],[1,0,0,0,5],[1,1,0,0,-5]];perimeter=orthogonalPerimeter;outlineConnect=0;targetShapes=umlLifeline;portConstraint=eastwest;newEdgeStyle={&quot;curved&quot;:0,&quot;rounded&quot;:0};" parent="gJmVssM9Ugrq67nuFQSi-48" vertex="1">
          <mxGeometry x="135" y="610" width="10" height="40" as="geometry" />
        </mxCell>
        <mxCell id="gJmVssM9Ugrq67nuFQSi-132" value="DIsplay List&amp;nbsp;&lt;br&gt;of Artisans in the&amp;nbsp;&lt;br&gt;Vicinity and&amp;nbsp;&lt;br&gt;Their Cathegory&lt;br&gt;of Products&amp;nbsp;&lt;br&gt;and Items" style="html=1;align=left;spacingLeft=2;endArrow=block;rounded=0;edgeStyle=orthogonalEdgeStyle;curved=0;rounded=0;" parent="gJmVssM9Ugrq67nuFQSi-48" target="gJmVssM9Ugrq67nuFQSi-131" edge="1">
          <mxGeometry x="0.0196" relative="1" as="geometry">
            <mxPoint x="140" y="590" as="sourcePoint" />
            <Array as="points">
              <mxPoint x="170" y="620" />
            </Array>
            <mxPoint as="offset" />
          </mxGeometry>
        </mxCell>
        <mxCell id="gJmVssM9Ugrq67nuFQSi-133" value="" style="html=1;points=[[0,0,0,0,5],[0,1,0,0,-5],[1,0,0,0,5],[1,1,0,0,-5]];perimeter=orthogonalPerimeter;outlineConnect=0;targetShapes=umlLifeline;portConstraint=eastwest;newEdgeStyle={&quot;curved&quot;:0,&quot;rounded&quot;:0};" parent="gJmVssM9Ugrq67nuFQSi-48" vertex="1">
          <mxGeometry x="5" y="680" width="10" height="30" as="geometry" />
        </mxCell>
        <mxCell id="gJmVssM9Ugrq67nuFQSi-149" value="" style="html=1;points=[[0,0,0,0,5],[0,1,0,0,-5],[1,0,0,0,5],[1,1,0,0,-5]];perimeter=orthogonalPerimeter;outlineConnect=0;targetShapes=umlLifeline;portConstraint=eastwest;newEdgeStyle={&quot;curved&quot;:0,&quot;rounded&quot;:0};" parent="gJmVssM9Ugrq67nuFQSi-48" vertex="1">
          <mxGeometry x="5" y="1020" width="10" height="30" as="geometry" />
        </mxCell>
        <mxCell id="gJmVssM9Ugrq67nuFQSi-49" value="" style="shape=umlLifeline;perimeter=lifelinePerimeter;whiteSpace=wrap;html=1;container=1;dropTarget=0;collapsible=0;recursiveResize=0;outlineConnect=0;portConstraint=eastwest;newEdgeStyle={&quot;curved&quot;:0,&quot;rounded&quot;:0};participant=umlBoundary;" parent="1" vertex="1">
          <mxGeometry x="265" y="220" width="50" height="3430" as="geometry" />
        </mxCell>
        <mxCell id="gJmVssM9Ugrq67nuFQSi-72" value="" style="html=1;points=[[0,0,0,0,5],[0,1,0,0,-5],[1,0,0,0,5],[1,1,0,0,-5]];perimeter=orthogonalPerimeter;outlineConnect=0;targetShapes=umlLifeline;portConstraint=eastwest;newEdgeStyle={&quot;curved&quot;:0,&quot;rounded&quot;:0};" parent="gJmVssM9Ugrq67nuFQSi-49" vertex="1">
          <mxGeometry x="20" y="100" width="10" height="30" as="geometry" />
        </mxCell>
        <mxCell id="gJmVssM9Ugrq67nuFQSi-83" value="" style="html=1;points=[[0,0,0,0,5],[0,1,0,0,-5],[1,0,0,0,5],[1,1,0,0,-5]];perimeter=orthogonalPerimeter;outlineConnect=0;targetShapes=umlLifeline;portConstraint=eastwest;newEdgeStyle={&quot;curved&quot;:0,&quot;rounded&quot;:0};" parent="gJmVssM9Ugrq67nuFQSi-49" vertex="1">
          <mxGeometry x="20" y="160" width="10" height="30" as="geometry" />
        </mxCell>
        <mxCell id="gJmVssM9Ugrq67nuFQSi-98" value="" style="html=1;points=[[0,0,0,0,5],[0,1,0,0,-5],[1,0,0,0,5],[1,1,0,0,-5]];perimeter=orthogonalPerimeter;outlineConnect=0;targetShapes=umlLifeline;portConstraint=eastwest;newEdgeStyle={&quot;curved&quot;:0,&quot;rounded&quot;:0};" parent="gJmVssM9Ugrq67nuFQSi-49" vertex="1">
          <mxGeometry x="20" y="260" width="10" height="40" as="geometry" />
        </mxCell>
        <mxCell id="gJmVssM9Ugrq67nuFQSi-112" value="" style="html=1;points=[[0,0,0,0,5],[0,1,0,0,-5],[1,0,0,0,5],[1,1,0,0,-5]];perimeter=orthogonalPerimeter;outlineConnect=0;targetShapes=umlLifeline;portConstraint=eastwest;newEdgeStyle={&quot;curved&quot;:0,&quot;rounded&quot;:0};" parent="gJmVssM9Ugrq67nuFQSi-49" vertex="1">
          <mxGeometry x="20" y="341" width="10" height="30" as="geometry" />
        </mxCell>
        <mxCell id="gJmVssM9Ugrq67nuFQSi-134" value="" style="html=1;points=[[0,0,0,0,5],[0,1,0,0,-5],[1,0,0,0,5],[1,1,0,0,-5]];perimeter=orthogonalPerimeter;outlineConnect=0;targetShapes=umlLifeline;portConstraint=eastwest;newEdgeStyle={&quot;curved&quot;:0,&quot;rounded&quot;:0};" parent="gJmVssM9Ugrq67nuFQSi-49" vertex="1">
          <mxGeometry x="20" y="690" width="10" height="30" as="geometry" />
        </mxCell>
        <mxCell id="gJmVssM9Ugrq67nuFQSi-151" value="" style="html=1;points=[[0,0,0,0,5],[0,1,0,0,-5],[1,0,0,0,5],[1,1,0,0,-5]];perimeter=orthogonalPerimeter;outlineConnect=0;targetShapes=umlLifeline;portConstraint=eastwest;newEdgeStyle={&quot;curved&quot;:0,&quot;rounded&quot;:0};" parent="gJmVssM9Ugrq67nuFQSi-49" vertex="1">
          <mxGeometry x="20" y="1024" width="10" height="30" as="geometry" />
        </mxCell>
        <mxCell id="gJmVssM9Ugrq67nuFQSi-180" value="" style="html=1;points=[[0,0,0,0,5],[0,1,0,0,-5],[1,0,0,0,5],[1,1,0,0,-5]];perimeter=orthogonalPerimeter;outlineConnect=0;targetShapes=umlLifeline;portConstraint=eastwest;newEdgeStyle={&quot;curved&quot;:0,&quot;rounded&quot;:0};" parent="gJmVssM9Ugrq67nuFQSi-49" vertex="1">
          <mxGeometry x="20" y="1450" width="10" height="30" as="geometry" />
        </mxCell>
        <mxCell id="gJmVssM9Ugrq67nuFQSi-198" value="" style="html=1;points=[[0,0,0,0,5],[0,1,0,0,-5],[1,0,0,0,5],[1,1,0,0,-5]];perimeter=orthogonalPerimeter;outlineConnect=0;targetShapes=umlLifeline;portConstraint=eastwest;newEdgeStyle={&quot;curved&quot;:0,&quot;rounded&quot;:0};" parent="gJmVssM9Ugrq67nuFQSi-49" vertex="1">
          <mxGeometry x="20" y="1740" width="10" height="40" as="geometry" />
        </mxCell>
        <mxCell id="gJmVssM9Ugrq67nuFQSi-50" value="" style="shape=umlLifeline;perimeter=lifelinePerimeter;whiteSpace=wrap;html=1;container=1;dropTarget=0;collapsible=0;recursiveResize=0;outlineConnect=0;portConstraint=eastwest;newEdgeStyle={&quot;curved&quot;:0,&quot;rounded&quot;:0};participant=umlControl;" parent="1" vertex="1">
          <mxGeometry x="405" y="230" width="40" height="3210" as="geometry" />
        </mxCell>
        <mxCell id="gJmVssM9Ugrq67nuFQSi-73" value="" style="html=1;points=[[0,0,0,0,5],[0,1,0,0,-5],[1,0,0,0,5],[1,1,0,0,-5]];perimeter=orthogonalPerimeter;outlineConnect=0;targetShapes=umlLifeline;portConstraint=eastwest;newEdgeStyle={&quot;curved&quot;:0,&quot;rounded&quot;:0};" parent="gJmVssM9Ugrq67nuFQSi-50" vertex="1">
          <mxGeometry x="15" y="90" width="10" height="40" as="geometry" />
        </mxCell>
        <mxCell id="gJmVssM9Ugrq67nuFQSi-84" value="" style="html=1;points=[[0,0,0,0,5],[0,1,0,0,-5],[1,0,0,0,5],[1,1,0,0,-5]];perimeter=orthogonalPerimeter;outlineConnect=0;targetShapes=umlLifeline;portConstraint=eastwest;newEdgeStyle={&quot;curved&quot;:0,&quot;rounded&quot;:0};" parent="gJmVssM9Ugrq67nuFQSi-50" vertex="1">
          <mxGeometry x="15" y="160" width="10" height="70" as="geometry" />
        </mxCell>
        <mxCell id="gJmVssM9Ugrq67nuFQSi-108" value="" style="html=1;points=[[0,0,0,0,5],[0,1,0,0,-5],[1,0,0,0,5],[1,1,0,0,-5]];perimeter=orthogonalPerimeter;outlineConnect=0;targetShapes=umlLifeline;portConstraint=eastwest;newEdgeStyle={&quot;curved&quot;:0,&quot;rounded&quot;:0};" parent="gJmVssM9Ugrq67nuFQSi-50" vertex="1">
          <mxGeometry x="15" y="270" width="10" height="40" as="geometry" />
        </mxCell>
        <mxCell id="gJmVssM9Ugrq67nuFQSi-113" value="" style="html=1;points=[[0,0,0,0,5],[0,1,0,0,-5],[1,0,0,0,5],[1,1,0,0,-5]];perimeter=orthogonalPerimeter;outlineConnect=0;targetShapes=umlLifeline;portConstraint=eastwest;newEdgeStyle={&quot;curved&quot;:0,&quot;rounded&quot;:0};" parent="gJmVssM9Ugrq67nuFQSi-50" vertex="1">
          <mxGeometry x="15" y="335" width="10" height="145" as="geometry" />
        </mxCell>
        <mxCell id="gJmVssM9Ugrq67nuFQSi-128" value="" style="html=1;points=[[0,0,0,0,5],[0,1,0,0,-5],[1,0,0,0,5],[1,1,0,0,-5]];perimeter=orthogonalPerimeter;outlineConnect=0;targetShapes=umlLifeline;portConstraint=eastwest;newEdgeStyle={&quot;curved&quot;:0,&quot;rounded&quot;:0};" parent="gJmVssM9Ugrq67nuFQSi-50" vertex="1">
          <mxGeometry x="15" y="500" width="10" height="40" as="geometry" />
        </mxCell>
        <mxCell id="gJmVssM9Ugrq67nuFQSi-129" value="Compile&lt;br&gt;List of Artisans&amp;nbsp;&lt;br&gt;With their&amp;nbsp;&lt;br&gt;Profile Details" style="html=1;align=left;spacingLeft=2;endArrow=block;rounded=0;edgeStyle=orthogonalEdgeStyle;curved=0;rounded=0;" parent="gJmVssM9Ugrq67nuFQSi-50" target="gJmVssM9Ugrq67nuFQSi-128" edge="1">
          <mxGeometry relative="1" as="geometry">
            <mxPoint x="20" y="480" as="sourcePoint" />
            <Array as="points">
              <mxPoint x="50" y="510" />
            </Array>
          </mxGeometry>
        </mxCell>
        <mxCell id="gJmVssM9Ugrq67nuFQSi-135" value="" style="html=1;points=[[0,0,0,0,5],[0,1,0,0,-5],[1,0,0,0,5],[1,1,0,0,-5]];perimeter=orthogonalPerimeter;outlineConnect=0;targetShapes=umlLifeline;portConstraint=eastwest;newEdgeStyle={&quot;curved&quot;:0,&quot;rounded&quot;:0};" parent="gJmVssM9Ugrq67nuFQSi-50" vertex="1">
          <mxGeometry x="15" y="689" width="10" height="141" as="geometry" />
        </mxCell>
        <mxCell id="gJmVssM9Ugrq67nuFQSi-152" value="" style="html=1;points=[[0,0,0,0,5],[0,1,0,0,-5],[1,0,0,0,5],[1,1,0,0,-5]];perimeter=orthogonalPerimeter;outlineConnect=0;targetShapes=umlLifeline;portConstraint=eastwest;newEdgeStyle={&quot;curved&quot;:0,&quot;rounded&quot;:0};" parent="gJmVssM9Ugrq67nuFQSi-50" vertex="1">
          <mxGeometry x="15" y="1021" width="10" height="30" as="geometry" />
        </mxCell>
        <mxCell id="gJmVssM9Ugrq67nuFQSi-165" value="" style="html=1;points=[[0,0,0,0,5],[0,1,0,0,-5],[1,0,0,0,5],[1,1,0,0,-5]];perimeter=orthogonalPerimeter;outlineConnect=0;targetShapes=umlLifeline;portConstraint=eastwest;newEdgeStyle={&quot;curved&quot;:0,&quot;rounded&quot;:0};" parent="gJmVssM9Ugrq67nuFQSi-50" vertex="1">
          <mxGeometry x="15" y="1206" width="10" height="114" as="geometry" />
        </mxCell>
        <mxCell id="gJmVssM9Ugrq67nuFQSi-181" value="" style="html=1;points=[[0,0,0,0,5],[0,1,0,0,-5],[1,0,0,0,5],[1,1,0,0,-5]];perimeter=orthogonalPerimeter;outlineConnect=0;targetShapes=umlLifeline;portConstraint=eastwest;newEdgeStyle={&quot;curved&quot;:0,&quot;rounded&quot;:0};" parent="gJmVssM9Ugrq67nuFQSi-50" vertex="1">
          <mxGeometry x="15" y="1454" width="10" height="146" as="geometry" />
        </mxCell>
        <mxCell id="gJmVssM9Ugrq67nuFQSi-199" value="" style="html=1;points=[[0,0,0,0,5],[0,1,0,0,-5],[1,0,0,0,5],[1,1,0,0,-5]];perimeter=orthogonalPerimeter;outlineConnect=0;targetShapes=umlLifeline;portConstraint=eastwest;newEdgeStyle={&quot;curved&quot;:0,&quot;rounded&quot;:0};" parent="gJmVssM9Ugrq67nuFQSi-50" vertex="1">
          <mxGeometry x="15" y="1750" width="10" height="40" as="geometry" />
        </mxCell>
        <mxCell id="XZX8-9DoowzfNJNOM7mi-6" value="" style="html=1;points=[[0,0,0,0,5],[0,1,0,0,-5],[1,0,0,0,5],[1,1,0,0,-5]];perimeter=orthogonalPerimeter;outlineConnect=0;targetShapes=umlLifeline;portConstraint=eastwest;newEdgeStyle={&quot;curved&quot;:0,&quot;rounded&quot;:0};" vertex="1" parent="gJmVssM9Ugrq67nuFQSi-50">
          <mxGeometry x="16" y="1967" width="10" height="40" as="geometry" />
        </mxCell>
        <mxCell id="gJmVssM9Ugrq67nuFQSi-51" value="" style="shape=umlLifeline;perimeter=lifelinePerimeter;whiteSpace=wrap;html=1;container=1;dropTarget=0;collapsible=0;recursiveResize=0;outlineConnect=0;portConstraint=eastwest;newEdgeStyle={&quot;curved&quot;:0,&quot;rounded&quot;:0};participant=umlEntity;" parent="1" vertex="1">
          <mxGeometry x="540" y="230" width="40" height="2750" as="geometry" />
        </mxCell>
        <mxCell id="gJmVssM9Ugrq67nuFQSi-85" value="" style="html=1;points=[[0,0,0,0,5],[0,1,0,0,-5],[1,0,0,0,5],[1,1,0,0,-5]];perimeter=orthogonalPerimeter;outlineConnect=0;targetShapes=umlLifeline;portConstraint=eastwest;newEdgeStyle={&quot;curved&quot;:0,&quot;rounded&quot;:0};" parent="gJmVssM9Ugrq67nuFQSi-51" vertex="1">
          <mxGeometry x="15" y="169" width="10" height="30" as="geometry" />
        </mxCell>
        <mxCell id="gJmVssM9Ugrq67nuFQSi-52" value="" style="shape=umlLifeline;perimeter=lifelinePerimeter;whiteSpace=wrap;html=1;container=1;dropTarget=0;collapsible=0;recursiveResize=0;outlineConnect=0;portConstraint=eastwest;newEdgeStyle={&quot;curved&quot;:0,&quot;rounded&quot;:0};participant=umlEntity;" parent="1" vertex="1">
          <mxGeometry x="690" y="230" width="40" height="3150" as="geometry" />
        </mxCell>
        <mxCell id="gJmVssM9Ugrq67nuFQSi-74" value="" style="html=1;points=[[0,0,0,0,5],[0,1,0,0,-5],[1,0,0,0,5],[1,1,0,0,-5]];perimeter=orthogonalPerimeter;outlineConnect=0;targetShapes=umlLifeline;portConstraint=eastwest;newEdgeStyle={&quot;curved&quot;:0,&quot;rounded&quot;:0};" parent="gJmVssM9Ugrq67nuFQSi-52" vertex="1">
          <mxGeometry x="15" y="90" width="10" height="30" as="geometry" />
        </mxCell>
        <mxCell id="gJmVssM9Ugrq67nuFQSi-115" value="" style="html=1;points=[[0,0,0,0,5],[0,1,0,0,-5],[1,0,0,0,5],[1,1,0,0,-5]];perimeter=orthogonalPerimeter;outlineConnect=0;targetShapes=umlLifeline;portConstraint=eastwest;newEdgeStyle={&quot;curved&quot;:0,&quot;rounded&quot;:0};" parent="gJmVssM9Ugrq67nuFQSi-52" vertex="1">
          <mxGeometry x="15" y="342" width="10" height="30" as="geometry" />
        </mxCell>
        <mxCell id="gJmVssM9Ugrq67nuFQSi-140" value="" style="html=1;points=[[0,0,0,0,5],[0,1,0,0,-5],[1,0,0,0,5],[1,1,0,0,-5]];perimeter=orthogonalPerimeter;outlineConnect=0;targetShapes=umlLifeline;portConstraint=eastwest;newEdgeStyle={&quot;curved&quot;:0,&quot;rounded&quot;:0};" parent="gJmVssM9Ugrq67nuFQSi-52" vertex="1">
          <mxGeometry x="15" y="700" width="10" height="30" as="geometry" />
        </mxCell>
        <mxCell id="gJmVssM9Ugrq67nuFQSi-54" value="" style="shape=umlLifeline;perimeter=lifelinePerimeter;whiteSpace=wrap;html=1;container=1;dropTarget=0;collapsible=0;recursiveResize=0;outlineConnect=0;portConstraint=eastwest;newEdgeStyle={&quot;curved&quot;:0,&quot;rounded&quot;:0};participant=umlEntity;" parent="1" vertex="1">
          <mxGeometry x="830" y="230" width="40" height="780" as="geometry" />
        </mxCell>
        <mxCell id="gJmVssM9Ugrq67nuFQSi-86" value="" style="html=1;points=[[0,0,0,0,5],[0,1,0,0,-5],[1,0,0,0,5],[1,1,0,0,-5]];perimeter=orthogonalPerimeter;outlineConnect=0;targetShapes=umlLifeline;portConstraint=eastwest;newEdgeStyle={&quot;curved&quot;:0,&quot;rounded&quot;:0};" parent="gJmVssM9Ugrq67nuFQSi-54" vertex="1">
          <mxGeometry x="15" y="180" width="10" height="30" as="geometry" />
        </mxCell>
        <mxCell id="gJmVssM9Ugrq67nuFQSi-116" value="" style="html=1;points=[[0,0,0,0,5],[0,1,0,0,-5],[1,0,0,0,5],[1,1,0,0,-5]];perimeter=orthogonalPerimeter;outlineConnect=0;targetShapes=umlLifeline;portConstraint=eastwest;newEdgeStyle={&quot;curved&quot;:0,&quot;rounded&quot;:0};" parent="gJmVssM9Ugrq67nuFQSi-54" vertex="1">
          <mxGeometry x="15" y="380" width="10" height="30" as="geometry" />
        </mxCell>
        <mxCell id="gJmVssM9Ugrq67nuFQSi-136" value="" style="html=1;points=[[0,0,0,0,5],[0,1,0,0,-5],[1,0,0,0,5],[1,1,0,0,-5]];perimeter=orthogonalPerimeter;outlineConnect=0;targetShapes=umlLifeline;portConstraint=eastwest;newEdgeStyle={&quot;curved&quot;:0,&quot;rounded&quot;:0};" parent="gJmVssM9Ugrq67nuFQSi-54" vertex="1">
          <mxGeometry x="15" y="742" width="10" height="30" as="geometry" />
        </mxCell>
        <mxCell id="gJmVssM9Ugrq67nuFQSi-55" value="" style="shape=umlLifeline;perimeter=lifelinePerimeter;whiteSpace=wrap;html=1;container=1;dropTarget=0;collapsible=0;recursiveResize=0;outlineConnect=0;portConstraint=eastwest;newEdgeStyle={&quot;curved&quot;:0,&quot;rounded&quot;:0};participant=umlEntity;" parent="1" vertex="1">
          <mxGeometry x="950" y="230" width="40" height="2960" as="geometry" />
        </mxCell>
        <mxCell id="gJmVssM9Ugrq67nuFQSi-87" value="" style="html=1;points=[[0,0,0,0,5],[0,1,0,0,-5],[1,0,0,0,5],[1,1,0,0,-5]];perimeter=orthogonalPerimeter;outlineConnect=0;targetShapes=umlLifeline;portConstraint=eastwest;newEdgeStyle={&quot;curved&quot;:0,&quot;rounded&quot;:0};" parent="gJmVssM9Ugrq67nuFQSi-55" vertex="1">
          <mxGeometry x="15" y="210" width="10" height="30" as="geometry" />
        </mxCell>
        <mxCell id="gJmVssM9Ugrq67nuFQSi-117" value="" style="html=1;points=[[0,0,0,0,5],[0,1,0,0,-5],[1,0,0,0,5],[1,1,0,0,-5]];perimeter=orthogonalPerimeter;outlineConnect=0;targetShapes=umlLifeline;portConstraint=eastwest;newEdgeStyle={&quot;curved&quot;:0,&quot;rounded&quot;:0};" parent="gJmVssM9Ugrq67nuFQSi-55" vertex="1">
          <mxGeometry x="15" y="423" width="10" height="30" as="geometry" />
        </mxCell>
        <mxCell id="gJmVssM9Ugrq67nuFQSi-56" value="" style="shape=umlLifeline;perimeter=lifelinePerimeter;whiteSpace=wrap;html=1;container=1;dropTarget=0;collapsible=0;recursiveResize=0;outlineConnect=0;portConstraint=eastwest;newEdgeStyle={&quot;curved&quot;:0,&quot;rounded&quot;:0};participant=umlEntity;" parent="1" vertex="1">
          <mxGeometry x="1060" y="230" width="40" height="3030" as="geometry" />
        </mxCell>
        <mxCell id="gJmVssM9Ugrq67nuFQSi-99" value="" style="html=1;points=[[0,0,0,0,5],[0,1,0,0,-5],[1,0,0,0,5],[1,1,0,0,-5]];perimeter=orthogonalPerimeter;outlineConnect=0;targetShapes=umlLifeline;portConstraint=eastwest;newEdgeStyle={&quot;curved&quot;:0,&quot;rounded&quot;:0};" parent="gJmVssM9Ugrq67nuFQSi-56" vertex="1">
          <mxGeometry x="15" y="270" width="10" height="40" as="geometry" />
        </mxCell>
        <mxCell id="gJmVssM9Ugrq67nuFQSi-57" value="" style="shape=umlLifeline;perimeter=lifelinePerimeter;whiteSpace=wrap;html=1;container=1;dropTarget=0;collapsible=0;recursiveResize=0;outlineConnect=0;portConstraint=eastwest;newEdgeStyle={&quot;curved&quot;:0,&quot;rounded&quot;:0};participant=umlEntity;" parent="1" vertex="1">
          <mxGeometry x="1190" y="230" width="40" height="4460" as="geometry" />
        </mxCell>
        <mxCell id="gJmVssM9Ugrq67nuFQSi-153" value="" style="html=1;points=[[0,0,0,0,5],[0,1,0,0,-5],[1,0,0,0,5],[1,1,0,0,-5]];perimeter=orthogonalPerimeter;outlineConnect=0;targetShapes=umlLifeline;portConstraint=eastwest;newEdgeStyle={&quot;curved&quot;:0,&quot;rounded&quot;:0};" parent="gJmVssM9Ugrq67nuFQSi-57" vertex="1">
          <mxGeometry x="14" y="1030" width="10" height="30" as="geometry" />
        </mxCell>
        <mxCell id="gJmVssM9Ugrq67nuFQSi-58" value="" style="shape=umlLifeline;perimeter=lifelinePerimeter;whiteSpace=wrap;html=1;container=1;dropTarget=0;collapsible=0;recursiveResize=0;outlineConnect=0;portConstraint=eastwest;newEdgeStyle={&quot;curved&quot;:0,&quot;rounded&quot;:0};participant=umlEntity;" parent="1" vertex="1">
          <mxGeometry x="1340" y="230" width="40" height="3220" as="geometry" />
        </mxCell>
        <mxCell id="gJmVssM9Ugrq67nuFQSi-166" value="" style="html=1;points=[[0,0,0,0,5],[0,1,0,0,-5],[1,0,0,0,5],[1,1,0,0,-5]];perimeter=orthogonalPerimeter;outlineConnect=0;targetShapes=umlLifeline;portConstraint=eastwest;newEdgeStyle={&quot;curved&quot;:0,&quot;rounded&quot;:0};" parent="gJmVssM9Ugrq67nuFQSi-58" vertex="1">
          <mxGeometry x="14" y="1219" width="10" height="30" as="geometry" />
        </mxCell>
        <mxCell id="gJmVssM9Ugrq67nuFQSi-59" value="" style="shape=umlLifeline;perimeter=lifelinePerimeter;whiteSpace=wrap;html=1;container=1;dropTarget=0;collapsible=0;recursiveResize=0;outlineConnect=0;portConstraint=eastwest;newEdgeStyle={&quot;curved&quot;:0,&quot;rounded&quot;:0};participant=umlEntity;" parent="1" vertex="1">
          <mxGeometry x="1500" y="240" width="40" height="2540" as="geometry" />
        </mxCell>
        <mxCell id="gJmVssM9Ugrq67nuFQSi-171" value="" style="html=1;points=[[0,0,0,0,5],[0,1,0,0,-5],[1,0,0,0,5],[1,1,0,0,-5]];perimeter=orthogonalPerimeter;outlineConnect=0;targetShapes=umlLifeline;portConstraint=eastwest;newEdgeStyle={&quot;curved&quot;:0,&quot;rounded&quot;:0};" parent="gJmVssM9Ugrq67nuFQSi-59" vertex="1">
          <mxGeometry x="16" y="1254" width="10" height="30" as="geometry" />
        </mxCell>
        <mxCell id="gJmVssM9Ugrq67nuFQSi-60" value="" style="shape=umlLifeline;perimeter=lifelinePerimeter;whiteSpace=wrap;html=1;container=1;dropTarget=0;collapsible=0;recursiveResize=0;outlineConnect=0;portConstraint=eastwest;newEdgeStyle={&quot;curved&quot;:0,&quot;rounded&quot;:0};participant=umlEntity;" parent="1" vertex="1">
          <mxGeometry x="1635" y="240" width="40" height="4120" as="geometry" />
        </mxCell>
        <mxCell id="XZX8-9DoowzfNJNOM7mi-2" value="" style="html=1;points=[[0,0,0,0,5],[0,1,0,0,-5],[1,0,0,0,5],[1,1,0,0,-5]];perimeter=orthogonalPerimeter;outlineConnect=0;targetShapes=umlLifeline;portConstraint=eastwest;newEdgeStyle={&quot;curved&quot;:0,&quot;rounded&quot;:0};" vertex="1" parent="gJmVssM9Ugrq67nuFQSi-60">
          <mxGeometry x="15" y="1487" width="10" height="30" as="geometry" />
        </mxCell>
        <mxCell id="gJmVssM9Ugrq67nuFQSi-61" value="" style="shape=umlLifeline;perimeter=lifelinePerimeter;whiteSpace=wrap;html=1;container=1;dropTarget=0;collapsible=0;recursiveResize=0;outlineConnect=0;portConstraint=eastwest;newEdgeStyle={&quot;curved&quot;:0,&quot;rounded&quot;:0};participant=umlEntity;" parent="1" vertex="1">
          <mxGeometry x="1765" y="240" width="40" height="4340" as="geometry" />
        </mxCell>
        <mxCell id="gJmVssM9Ugrq67nuFQSi-188" value="" style="html=1;points=[[0,0,0,0,5],[0,1,0,0,-5],[1,0,0,0,5],[1,1,0,0,-5]];perimeter=orthogonalPerimeter;outlineConnect=0;targetShapes=umlLifeline;portConstraint=eastwest;newEdgeStyle={&quot;curved&quot;:0,&quot;rounded&quot;:0};" parent="gJmVssM9Ugrq67nuFQSi-61" vertex="1">
          <mxGeometry x="14" y="1530" width="10" height="30" as="geometry" />
        </mxCell>
        <mxCell id="gJmVssM9Ugrq67nuFQSi-62" value="" style="shape=umlLifeline;perimeter=lifelinePerimeter;whiteSpace=wrap;html=1;container=1;dropTarget=0;collapsible=0;recursiveResize=0;outlineConnect=0;portConstraint=eastwest;newEdgeStyle={&quot;curved&quot;:0,&quot;rounded&quot;:0};participant=umlEntity;" parent="1" vertex="1">
          <mxGeometry x="1928" y="240" width="40" height="3410" as="geometry" />
        </mxCell>
        <mxCell id="gJmVssM9Ugrq67nuFQSi-190" value="" style="html=1;points=[[0,0,0,0,5],[0,1,0,0,-5],[1,0,0,0,5],[1,1,0,0,-5]];perimeter=orthogonalPerimeter;outlineConnect=0;targetShapes=umlLifeline;portConstraint=eastwest;newEdgeStyle={&quot;curved&quot;:0,&quot;rounded&quot;:0};" parent="gJmVssM9Ugrq67nuFQSi-62" vertex="1">
          <mxGeometry x="14" y="1570" width="10" height="30" as="geometry" />
        </mxCell>
        <mxCell id="gJmVssM9Ugrq67nuFQSi-63" value="" style="shape=umlLifeline;perimeter=lifelinePerimeter;whiteSpace=wrap;html=1;container=1;dropTarget=0;collapsible=0;recursiveResize=0;outlineConnect=0;portConstraint=eastwest;newEdgeStyle={&quot;curved&quot;:0,&quot;rounded&quot;:0};participant=umlEntity;" parent="1" vertex="1">
          <mxGeometry x="2080" y="240" width="40" height="3860" as="geometry" />
        </mxCell>
        <mxCell id="gJmVssM9Ugrq67nuFQSi-202" value="" style="html=1;points=[[0,0,0,0,5],[0,1,0,0,-5],[1,0,0,0,5],[1,1,0,0,-5]];perimeter=orthogonalPerimeter;outlineConnect=0;targetShapes=umlLifeline;portConstraint=eastwest;newEdgeStyle={&quot;curved&quot;:0,&quot;rounded&quot;:0};" parent="gJmVssM9Ugrq67nuFQSi-63" vertex="1">
          <mxGeometry x="14" y="1760" width="10" height="30" as="geometry" />
        </mxCell>
        <mxCell id="gJmVssM9Ugrq67nuFQSi-64" value="" style="shape=umlLifeline;perimeter=lifelinePerimeter;whiteSpace=wrap;html=1;container=1;dropTarget=0;collapsible=0;recursiveResize=0;outlineConnect=0;portConstraint=eastwest;newEdgeStyle={&quot;curved&quot;:0,&quot;rounded&quot;:0};participant=umlBoundary;" parent="1" vertex="1">
          <mxGeometry x="2235" y="240" width="50" height="4080" as="geometry" />
        </mxCell>
        <mxCell id="gJmVssM9Ugrq67nuFQSi-182" value="" style="html=1;points=[[0,0,0,0,5],[0,1,0,0,-5],[1,0,0,0,5],[1,1,0,0,-5]];perimeter=orthogonalPerimeter;outlineConnect=0;targetShapes=umlLifeline;portConstraint=eastwest;newEdgeStyle={&quot;curved&quot;:0,&quot;rounded&quot;:0};" parent="gJmVssM9Ugrq67nuFQSi-64" vertex="1">
          <mxGeometry x="19" y="1457" width="10" height="30" as="geometry" />
        </mxCell>
        <mxCell id="gJmVssM9Ugrq67nuFQSi-65" value="" style="shape=umlLifeline;perimeter=lifelinePerimeter;whiteSpace=wrap;html=1;container=1;dropTarget=0;collapsible=0;recursiveResize=0;outlineConnect=0;portConstraint=eastwest;newEdgeStyle={&quot;curved&quot;:0,&quot;rounded&quot;:0};participant=umlBoundary;" parent="1" vertex="1">
          <mxGeometry x="2395" y="230" width="50" height="4040" as="geometry" />
        </mxCell>
        <mxCell id="gJmVssM9Ugrq67nuFQSi-69" value="&lt;u&gt;: Artisan&lt;/u&gt;" style="text;html=1;align=center;verticalAlign=middle;resizable=0;points=[];autosize=1;strokeColor=none;fillColor=none;" parent="1" vertex="1">
          <mxGeometry x="35" y="270" width="70" height="30" as="geometry" />
        </mxCell>
        <mxCell id="gJmVssM9Ugrq67nuFQSi-70" value="&lt;u&gt;:Customer&lt;/u&gt;" style="text;html=1;align=center;verticalAlign=middle;resizable=0;points=[];autosize=1;strokeColor=none;fillColor=none;" parent="1" vertex="1">
          <mxGeometry x="110" y="270" width="80" height="30" as="geometry" />
        </mxCell>
        <mxCell id="gJmVssM9Ugrq67nuFQSi-75" value="Request Login" style="html=1;verticalAlign=bottom;endArrow=block;curved=0;rounded=0;" parent="1" target="gJmVssM9Ugrq67nuFQSi-49" edge="1">
          <mxGeometry width="80" relative="1" as="geometry">
            <mxPoint x="70" y="330" as="sourcePoint" />
            <mxPoint x="155" y="335" as="targetPoint" />
            <Array as="points" />
          </mxGeometry>
        </mxCell>
        <mxCell id="gJmVssM9Ugrq67nuFQSi-77" value="Request Ligin" style="html=1;verticalAlign=bottom;endArrow=block;curved=0;rounded=0;" parent="1" target="gJmVssM9Ugrq67nuFQSi-73" edge="1">
          <mxGeometry width="80" relative="1" as="geometry">
            <mxPoint x="290" y="340" as="sourcePoint" />
            <mxPoint x="400" y="340" as="targetPoint" />
          </mxGeometry>
        </mxCell>
        <mxCell id="gJmVssM9Ugrq67nuFQSi-81" value="Varify Login Details" style="html=1;verticalAlign=bottom;endArrow=block;curved=0;rounded=0;" parent="1" edge="1">
          <mxGeometry width="80" relative="1" as="geometry">
            <mxPoint x="430" y="345" as="sourcePoint" />
            <mxPoint x="710" y="345" as="targetPoint" />
          </mxGeometry>
        </mxCell>
        <mxCell id="gJmVssM9Ugrq67nuFQSi-88" value="Request Create Profile" style="html=1;verticalAlign=bottom;endArrow=block;curved=0;rounded=0;" parent="1" edge="1">
          <mxGeometry width="80" relative="1" as="geometry">
            <mxPoint x="70" y="389.65999999999997" as="sourcePoint" />
            <mxPoint x="290" y="389.65999999999997" as="targetPoint" />
            <Array as="points" />
          </mxGeometry>
        </mxCell>
        <mxCell id="gJmVssM9Ugrq67nuFQSi-90" value="Request Create Profile" style="html=1;verticalAlign=bottom;endArrow=block;curved=0;rounded=0;" parent="1" edge="1">
          <mxGeometry width="80" relative="1" as="geometry">
            <mxPoint x="290" y="399.65999999999997" as="sourcePoint" />
            <mxPoint x="420" y="400" as="targetPoint" />
            <Array as="points" />
          </mxGeometry>
        </mxCell>
        <mxCell id="gJmVssM9Ugrq67nuFQSi-91" value="Get Product Category" style="html=1;verticalAlign=bottom;endArrow=block;curved=0;rounded=0;" parent="1" source="gJmVssM9Ugrq67nuFQSi-84" edge="1">
          <mxGeometry x="0.0769" y="10" width="80" relative="1" as="geometry">
            <mxPoint x="450" y="409.65999999999997" as="sourcePoint" />
            <mxPoint x="560" y="410" as="targetPoint" />
            <Array as="points" />
            <mxPoint as="offset" />
          </mxGeometry>
        </mxCell>
        <mxCell id="gJmVssM9Ugrq67nuFQSi-94" value="Create New Record of Artisan`s Profile &lt;br&gt;With Category of Products" style="html=1;verticalAlign=bottom;endArrow=block;curved=0;rounded=0;" parent="1" target="gJmVssM9Ugrq67nuFQSi-54" edge="1">
          <mxGeometry width="80" relative="1" as="geometry">
            <mxPoint x="560" y="420" as="sourcePoint" />
            <mxPoint x="640" y="420" as="targetPoint" />
          </mxGeometry>
        </mxCell>
        <mxCell id="gJmVssM9Ugrq67nuFQSi-95" value="Create New Record of Artisan`s Item Within a Category of Products" style="html=1;verticalAlign=bottom;endArrow=block;curved=0;rounded=0;" parent="1" target="gJmVssM9Ugrq67nuFQSi-55" edge="1">
          <mxGeometry width="80" relative="1" as="geometry">
            <mxPoint x="430" y="450" as="sourcePoint" />
            <mxPoint x="720" y="450" as="targetPoint" />
          </mxGeometry>
        </mxCell>
        <mxCell id="gJmVssM9Ugrq67nuFQSi-102" value="Request Login" style="html=1;verticalAlign=bottom;endArrow=block;curved=0;rounded=0;" parent="1" target="gJmVssM9Ugrq67nuFQSi-49" edge="1">
          <mxGeometry width="80" relative="1" as="geometry">
            <mxPoint x="160" y="490" as="sourcePoint" />
            <mxPoint x="240" y="490" as="targetPoint" />
          </mxGeometry>
        </mxCell>
        <mxCell id="gJmVssM9Ugrq67nuFQSi-107" value="If first - time User - Register" style="html=1;verticalAlign=bottom;endArrow=block;curved=0;rounded=0;" parent="1" target="gJmVssM9Ugrq67nuFQSi-56" edge="1">
          <mxGeometry width="80" relative="1" as="geometry">
            <mxPoint x="430" y="510" as="sourcePoint" />
            <mxPoint x="710" y="510" as="targetPoint" />
          </mxGeometry>
        </mxCell>
        <mxCell id="gJmVssM9Ugrq67nuFQSi-109" value="Varify Login Details" style="html=1;verticalAlign=bottom;endArrow=block;curved=0;rounded=0;" parent="1" edge="1">
          <mxGeometry width="80" relative="1" as="geometry">
            <mxPoint x="430" y="533" as="sourcePoint" />
            <mxPoint x="1080" y="533" as="targetPoint" />
          </mxGeometry>
        </mxCell>
        <mxCell id="gJmVssM9Ugrq67nuFQSi-110" value="Request Login" style="html=1;verticalAlign=bottom;endArrow=block;curved=0;rounded=0;" parent="1" edge="1">
          <mxGeometry width="80" relative="1" as="geometry">
            <mxPoint x="290" y="510" as="sourcePoint" />
            <mxPoint x="420" y="510" as="targetPoint" />
          </mxGeometry>
        </mxCell>
        <mxCell id="gJmVssM9Ugrq67nuFQSi-121" value="Request View Artisans&lt;br&gt;in Vicinity" style="html=1;verticalAlign=bottom;endArrow=block;curved=0;rounded=0;" parent="1" edge="1">
          <mxGeometry width="80" relative="1" as="geometry">
            <mxPoint x="160" y="564.29" as="sourcePoint" />
            <mxPoint x="290" y="564.29" as="targetPoint" />
          </mxGeometry>
        </mxCell>
        <mxCell id="gJmVssM9Ugrq67nuFQSi-123" value="Request View Artisans&lt;br&gt;in Vicinity" style="html=1;verticalAlign=bottom;endArrow=block;curved=0;rounded=0;" parent="1" edge="1">
          <mxGeometry width="80" relative="1" as="geometry">
            <mxPoint x="290" y="574.29" as="sourcePoint" />
            <mxPoint x="420" y="574.29" as="targetPoint" />
          </mxGeometry>
        </mxCell>
        <mxCell id="gJmVssM9Ugrq67nuFQSi-124" value="Get&amp;nbsp; Artisna`s Details" style="html=1;verticalAlign=bottom;endArrow=block;curved=0;rounded=0;" parent="1" target="gJmVssM9Ugrq67nuFQSi-52" edge="1">
          <mxGeometry width="80" relative="1" as="geometry">
            <mxPoint x="420" y="580" as="sourcePoint" />
            <mxPoint x="500" y="580" as="targetPoint" />
          </mxGeometry>
        </mxCell>
        <mxCell id="gJmVssM9Ugrq67nuFQSi-125" value="Get Artisan`s Category of products Details&amp;nbsp;" style="html=1;verticalAlign=bottom;endArrow=block;curved=0;rounded=0;" parent="1" target="gJmVssM9Ugrq67nuFQSi-54" edge="1">
          <mxGeometry width="80" relative="1" as="geometry">
            <mxPoint x="430" y="620" as="sourcePoint" />
            <mxPoint x="720" y="620" as="targetPoint" />
          </mxGeometry>
        </mxCell>
        <mxCell id="gJmVssM9Ugrq67nuFQSi-126" value="Get&amp;nbsp; Artisan`s Items within Category of Products" style="html=1;verticalAlign=bottom;endArrow=block;curved=0;rounded=0;" parent="1" target="gJmVssM9Ugrq67nuFQSi-55" edge="1">
          <mxGeometry width="80" relative="1" as="geometry">
            <mxPoint x="430" y="660" as="sourcePoint" />
            <mxPoint x="720" y="660" as="targetPoint" />
          </mxGeometry>
        </mxCell>
        <mxCell id="gJmVssM9Ugrq67nuFQSi-137" value="Select Artisan &lt;br&gt;from the list" style="html=1;verticalAlign=bottom;endArrow=block;curved=0;rounded=0;" parent="1" edge="1">
          <mxGeometry width="80" relative="1" as="geometry">
            <mxPoint x="160" y="920" as="sourcePoint" />
            <mxPoint x="290" y="920" as="targetPoint" />
          </mxGeometry>
        </mxCell>
        <mxCell id="gJmVssM9Ugrq67nuFQSi-138" value="Select Artisan &lt;br&gt;from the list" style="html=1;verticalAlign=bottom;endArrow=block;curved=0;rounded=0;" parent="1" edge="1">
          <mxGeometry width="80" relative="1" as="geometry">
            <mxPoint x="290" y="930" as="sourcePoint" />
            <mxPoint x="420" y="930" as="targetPoint" />
          </mxGeometry>
        </mxCell>
        <mxCell id="gJmVssM9Ugrq67nuFQSi-141" value="Get&amp;nbsp; Artisna`s Details" style="html=1;verticalAlign=bottom;endArrow=block;curved=0;rounded=0;" parent="1" edge="1">
          <mxGeometry width="80" relative="1" as="geometry">
            <mxPoint x="430" y="940" as="sourcePoint" />
            <mxPoint x="710" y="940" as="targetPoint" />
          </mxGeometry>
        </mxCell>
        <mxCell id="gJmVssM9Ugrq67nuFQSi-142" value="Get Artisan`s Category of products Details&amp;nbsp;" style="html=1;verticalAlign=bottom;endArrow=block;curved=0;rounded=0;" parent="1" edge="1">
          <mxGeometry width="80" relative="1" as="geometry">
            <mxPoint x="420" y="980" as="sourcePoint" />
            <mxPoint x="840" y="980" as="targetPoint" />
          </mxGeometry>
        </mxCell>
        <mxCell id="gJmVssM9Ugrq67nuFQSi-143" value="" style="html=1;points=[[0,0,0,0,5],[0,1,0,0,-5],[1,0,0,0,5],[1,1,0,0,-5]];perimeter=orthogonalPerimeter;outlineConnect=0;targetShapes=umlLifeline;portConstraint=eastwest;newEdgeStyle={&quot;curved&quot;:0,&quot;rounded&quot;:0};" parent="1" vertex="1">
          <mxGeometry x="965" y="1028" width="10" height="30" as="geometry" />
        </mxCell>
        <mxCell id="gJmVssM9Ugrq67nuFQSi-145" value="Get&amp;nbsp; Artisan`s Items within Category of Products" style="html=1;verticalAlign=bottom;endArrow=block;curved=0;rounded=0;" parent="1" edge="1">
          <mxGeometry width="80" relative="1" as="geometry">
            <mxPoint x="425" y="1040" as="sourcePoint" />
            <mxPoint x="965" y="1040" as="targetPoint" />
          </mxGeometry>
        </mxCell>
        <mxCell id="gJmVssM9Ugrq67nuFQSi-146" value="" style="html=1;points=[[0,0,0,0,5],[0,1,0,0,-5],[1,0,0,0,5],[1,1,0,0,-5]];perimeter=orthogonalPerimeter;outlineConnect=0;targetShapes=umlLifeline;portConstraint=eastwest;newEdgeStyle={&quot;curved&quot;:0,&quot;rounded&quot;:0};" parent="1" vertex="1">
          <mxGeometry x="285" y="1080" width="10" height="30" as="geometry" />
        </mxCell>
        <mxCell id="gJmVssM9Ugrq67nuFQSi-147" value="" style="html=1;points=[[0,0,0,0,5],[0,1,0,0,-5],[1,0,0,0,5],[1,1,0,0,-5]];perimeter=orthogonalPerimeter;outlineConnect=0;targetShapes=umlLifeline;portConstraint=eastwest;newEdgeStyle={&quot;curved&quot;:0,&quot;rounded&quot;:0};" parent="1" vertex="1">
          <mxGeometry x="285" y="1130" width="10" height="40" as="geometry" />
        </mxCell>
        <mxCell id="gJmVssM9Ugrq67nuFQSi-148" value="DIsplay Artisans&amp;nbsp;&lt;br&gt;details&lt;br&gt;within theCathegorries" style="html=1;align=left;spacingLeft=2;endArrow=block;rounded=0;edgeStyle=orthogonalEdgeStyle;curved=0;rounded=0;" parent="1" target="gJmVssM9Ugrq67nuFQSi-147" edge="1">
          <mxGeometry x="0.0196" relative="1" as="geometry">
            <mxPoint x="290" y="1110" as="sourcePoint" />
            <Array as="points">
              <mxPoint x="320" y="1140" />
            </Array>
            <mxPoint as="offset" />
          </mxGeometry>
        </mxCell>
        <mxCell id="gJmVssM9Ugrq67nuFQSi-156" value="Place Request For&amp;nbsp;&lt;br&gt;Selected Artisan`s Item &lt;br&gt;Within a Category" style="html=1;verticalAlign=bottom;endArrow=block;curved=0;rounded=0;" parent="1" target="gJmVssM9Ugrq67nuFQSi-49" edge="1">
          <mxGeometry x="0.0039" width="80" relative="1" as="geometry">
            <mxPoint x="160" y="1250" as="sourcePoint" />
            <mxPoint x="240" y="1250" as="targetPoint" />
            <mxPoint as="offset" />
          </mxGeometry>
        </mxCell>
        <mxCell id="gJmVssM9Ugrq67nuFQSi-158" value="Place Request For&amp;nbsp;&lt;br&gt;Selected Artisan`s Item &lt;br&gt;Within a Category" style="html=1;verticalAlign=bottom;endArrow=block;curved=0;rounded=0;" parent="1" edge="1">
          <mxGeometry x="0.0039" width="80" relative="1" as="geometry">
            <mxPoint x="290" y="1260" as="sourcePoint" />
            <mxPoint x="420" y="1260" as="targetPoint" />
            <mxPoint as="offset" />
          </mxGeometry>
        </mxCell>
        <mxCell id="gJmVssM9Ugrq67nuFQSi-159" value="Create New Record&amp;nbsp; of Cusotmer `s Request for Artisan`s Selected Item" style="html=1;verticalAlign=bottom;endArrow=block;curved=0;rounded=0;" parent="1" target="gJmVssM9Ugrq67nuFQSi-57" edge="1">
          <mxGeometry width="80" relative="1" as="geometry">
            <mxPoint x="420" y="1270" as="sourcePoint" />
            <mxPoint x="500" y="1270" as="targetPoint" />
          </mxGeometry>
        </mxCell>
        <mxCell id="gJmVssM9Ugrq67nuFQSi-160" value="" style="html=1;points=[[0,0,0,0,5],[0,1,0,0,-5],[1,0,0,0,5],[1,1,0,0,-5]];perimeter=orthogonalPerimeter;outlineConnect=0;targetShapes=umlLifeline;portConstraint=eastwest;newEdgeStyle={&quot;curved&quot;:0,&quot;rounded&quot;:0};" parent="1" vertex="1">
          <mxGeometry x="285" y="1310" width="10" height="30" as="geometry" />
        </mxCell>
        <mxCell id="gJmVssM9Ugrq67nuFQSi-161" value="" style="html=1;points=[[0,0,0,0,5],[0,1,0,0,-5],[1,0,0,0,5],[1,1,0,0,-5]];perimeter=orthogonalPerimeter;outlineConnect=0;targetShapes=umlLifeline;portConstraint=eastwest;newEdgeStyle={&quot;curved&quot;:0,&quot;rounded&quot;:0};" parent="1" vertex="1">
          <mxGeometry x="285" y="1360" width="10" height="40" as="geometry" />
        </mxCell>
        <mxCell id="gJmVssM9Ugrq67nuFQSi-162" value="DIsplay Customer`s&amp;nbsp;&lt;br&gt;Request for Artisan`s &lt;br&gt;Item&amp;nbsp;Selected" style="html=1;align=left;spacingLeft=2;endArrow=block;rounded=0;edgeStyle=orthogonalEdgeStyle;curved=0;rounded=0;" parent="1" target="gJmVssM9Ugrq67nuFQSi-161" edge="1">
          <mxGeometry x="0.0196" relative="1" as="geometry">
            <mxPoint x="290" y="1340" as="sourcePoint" />
            <Array as="points">
              <mxPoint x="320" y="1370" />
            </Array>
            <mxPoint as="offset" />
          </mxGeometry>
        </mxCell>
        <mxCell id="gJmVssM9Ugrq67nuFQSi-163" value="" style="html=1;points=[[0,0,0,0,5],[0,1,0,0,-5],[1,0,0,0,5],[1,1,0,0,-5]];perimeter=orthogonalPerimeter;outlineConnect=0;targetShapes=umlLifeline;portConstraint=eastwest;newEdgeStyle={&quot;curved&quot;:0,&quot;rounded&quot;:0};" parent="1" vertex="1">
          <mxGeometry x="65" y="1420" width="10" height="30" as="geometry" />
        </mxCell>
        <mxCell id="gJmVssM9Ugrq67nuFQSi-164" value="" style="html=1;points=[[0,0,0,0,5],[0,1,0,0,-5],[1,0,0,0,5],[1,1,0,0,-5]];perimeter=orthogonalPerimeter;outlineConnect=0;targetShapes=umlLifeline;portConstraint=eastwest;newEdgeStyle={&quot;curved&quot;:0,&quot;rounded&quot;:0};" parent="1" vertex="1">
          <mxGeometry x="285" y="1424" width="10" height="30" as="geometry" />
        </mxCell>
        <mxCell id="gJmVssM9Ugrq67nuFQSi-167" value="Send Notification For &lt;br&gt;Customer`s Request" style="html=1;verticalAlign=bottom;endArrow=block;curved=0;rounded=0;" parent="1" target="gJmVssM9Ugrq67nuFQSi-49" edge="1">
          <mxGeometry width="80" relative="1" as="geometry">
            <mxPoint x="70" y="1430" as="sourcePoint" />
            <mxPoint x="150" y="1430" as="targetPoint" />
          </mxGeometry>
        </mxCell>
        <mxCell id="gJmVssM9Ugrq67nuFQSi-168" value="Send Notification For &lt;br&gt;Customer`s Request" style="html=1;verticalAlign=bottom;endArrow=block;curved=0;rounded=0;entryX=0;entryY=0;entryDx=0;entryDy=5;entryPerimeter=0;" parent="1" target="gJmVssM9Ugrq67nuFQSi-165" edge="1">
          <mxGeometry width="80" relative="1" as="geometry">
            <mxPoint x="287" y="1440" as="sourcePoint" />
            <mxPoint x="507" y="1440" as="targetPoint" />
          </mxGeometry>
        </mxCell>
        <mxCell id="gJmVssM9Ugrq67nuFQSi-170" value="Create New Record of Notification of Acceptance / Rejection for Customer`s Request" style="html=1;verticalAlign=bottom;endArrow=block;curved=0;rounded=0;" parent="1" target="gJmVssM9Ugrq67nuFQSi-58" edge="1">
          <mxGeometry width="80" relative="1" as="geometry">
            <mxPoint x="426" y="1454" as="sourcePoint" />
            <mxPoint x="506" y="1454" as="targetPoint" />
          </mxGeometry>
        </mxCell>
        <mxCell id="gJmVssM9Ugrq67nuFQSi-172" value="If request Accepted - Create New Record of Invoice for Payment of Requested Item(s)" style="html=1;verticalAlign=bottom;endArrow=block;curved=0;rounded=0;" parent="1" target="gJmVssM9Ugrq67nuFQSi-59" edge="1">
          <mxGeometry width="80" relative="1" as="geometry">
            <mxPoint x="426" y="1504" as="sourcePoint" />
            <mxPoint x="1480" y="1504" as="targetPoint" />
          </mxGeometry>
        </mxCell>
        <mxCell id="gJmVssM9Ugrq67nuFQSi-176" value="" style="html=1;points=[[0,0,0,0,5],[0,1,0,0,-5],[1,0,0,0,5],[1,1,0,0,-5]];perimeter=orthogonalPerimeter;outlineConnect=0;targetShapes=umlLifeline;portConstraint=eastwest;newEdgeStyle={&quot;curved&quot;:0,&quot;rounded&quot;:0};" parent="1" vertex="1">
          <mxGeometry x="285" y="1540" width="10" height="30" as="geometry" />
        </mxCell>
        <mxCell id="gJmVssM9Ugrq67nuFQSi-177" value="" style="html=1;points=[[0,0,0,0,5],[0,1,0,0,-5],[1,0,0,0,5],[1,1,0,0,-5]];perimeter=orthogonalPerimeter;outlineConnect=0;targetShapes=umlLifeline;portConstraint=eastwest;newEdgeStyle={&quot;curved&quot;:0,&quot;rounded&quot;:0};" parent="1" vertex="1">
          <mxGeometry x="285" y="1590" width="10" height="40" as="geometry" />
        </mxCell>
        <mxCell id="gJmVssM9Ugrq67nuFQSi-178" value="DIsplay Notification of Acceptance / Rejection for Cstomer &lt;br&gt;Request for Actisan`s&amp;nbsp;Item Selected&lt;br&gt;(if Request Accepted - Display Invoice for Payment Created" style="html=1;align=left;spacingLeft=2;endArrow=block;rounded=0;edgeStyle=orthogonalEdgeStyle;curved=0;rounded=0;" parent="1" target="gJmVssM9Ugrq67nuFQSi-177" edge="1">
          <mxGeometry x="0.0196" relative="1" as="geometry">
            <mxPoint x="290" y="1570" as="sourcePoint" />
            <Array as="points">
              <mxPoint x="320" y="1600" />
            </Array>
            <mxPoint as="offset" />
          </mxGeometry>
        </mxCell>
        <mxCell id="gJmVssM9Ugrq67nuFQSi-183" value="Request Create/ Fund Digital Wollet" style="html=1;verticalAlign=bottom;endArrow=block;curved=0;rounded=0;" parent="1" target="gJmVssM9Ugrq67nuFQSi-49" edge="1">
          <mxGeometry width="80" relative="1" as="geometry">
            <mxPoint x="70" y="1680" as="sourcePoint" />
            <mxPoint x="150" y="1680" as="targetPoint" />
          </mxGeometry>
        </mxCell>
        <mxCell id="gJmVssM9Ugrq67nuFQSi-184" value="Request Create/&lt;br&gt;&amp;nbsp;Fund Digital Wollet" style="html=1;verticalAlign=bottom;endArrow=block;curved=0;rounded=0;entryX=0;entryY=0;entryDx=0;entryDy=5;entryPerimeter=0;" parent="1" target="gJmVssM9Ugrq67nuFQSi-181" edge="1">
          <mxGeometry width="80" relative="1" as="geometry">
            <mxPoint x="290" y="1690" as="sourcePoint" />
            <mxPoint x="410" y="1690" as="targetPoint" />
          </mxGeometry>
        </mxCell>
        <mxCell id="gJmVssM9Ugrq67nuFQSi-186" value="Connect to 3rd Party Digital Wollet SW Boundary" style="html=1;verticalAlign=bottom;endArrow=block;curved=0;rounded=0;entryX=0;entryY=0;entryDx=0;entryDy=5;entryPerimeter=0;" parent="1" target="gJmVssM9Ugrq67nuFQSi-182" edge="1">
          <mxGeometry width="80" relative="1" as="geometry">
            <mxPoint x="430" y="1700" as="sourcePoint" />
            <mxPoint x="510" y="1700" as="targetPoint" />
          </mxGeometry>
        </mxCell>
        <mxCell id="gJmVssM9Ugrq67nuFQSi-189" value="Create New Record of Cutomer`s Payment for Invoice for Slected Product" style="html=1;verticalAlign=bottom;endArrow=block;curved=0;rounded=0;entryX=0;entryY=0;entryDx=0;entryDy=5;entryPerimeter=0;" parent="1" target="gJmVssM9Ugrq67nuFQSi-188" edge="1">
          <mxGeometry width="80" relative="1" as="geometry">
            <mxPoint x="420" y="1770" as="sourcePoint" />
            <mxPoint x="1870" y="1780" as="targetPoint" />
          </mxGeometry>
        </mxCell>
        <mxCell id="gJmVssM9Ugrq67nuFQSi-191" value="Create New Record of Notification for CUsotmer`s Payment Provicded" style="html=1;verticalAlign=bottom;endArrow=block;curved=0;rounded=0;" parent="1" target="gJmVssM9Ugrq67nuFQSi-62" edge="1">
          <mxGeometry width="80" relative="1" as="geometry">
            <mxPoint x="430" y="1817.5" as="sourcePoint" />
            <mxPoint x="1910" y="1822.5" as="targetPoint" />
          </mxGeometry>
        </mxCell>
        <mxCell id="gJmVssM9Ugrq67nuFQSi-194" value="" style="html=1;points=[[0,0,0,0,5],[0,1,0,0,-5],[1,0,0,0,5],[1,1,0,0,-5]];perimeter=orthogonalPerimeter;outlineConnect=0;targetShapes=umlLifeline;portConstraint=eastwest;newEdgeStyle={&quot;curved&quot;:0,&quot;rounded&quot;:0};" parent="1" vertex="1">
          <mxGeometry x="285" y="1840" width="10" height="30" as="geometry" />
        </mxCell>
        <mxCell id="gJmVssM9Ugrq67nuFQSi-195" value="" style="html=1;points=[[0,0,0,0,5],[0,1,0,0,-5],[1,0,0,0,5],[1,1,0,0,-5]];perimeter=orthogonalPerimeter;outlineConnect=0;targetShapes=umlLifeline;portConstraint=eastwest;newEdgeStyle={&quot;curved&quot;:0,&quot;rounded&quot;:0};" parent="1" vertex="1">
          <mxGeometry x="285" y="1890" width="10" height="40" as="geometry" />
        </mxCell>
        <mxCell id="gJmVssM9Ugrq67nuFQSi-196" value="DIsplay Notification of CUsotmer`s Provided Payment" style="html=1;align=left;spacingLeft=2;endArrow=block;rounded=0;edgeStyle=orthogonalEdgeStyle;curved=0;rounded=0;" parent="1" target="gJmVssM9Ugrq67nuFQSi-195" edge="1">
          <mxGeometry x="0.0196" relative="1" as="geometry">
            <mxPoint x="290" y="1870" as="sourcePoint" />
            <Array as="points">
              <mxPoint x="320" y="1900" />
            </Array>
            <mxPoint as="offset" />
          </mxGeometry>
        </mxCell>
        <mxCell id="gJmVssM9Ugrq67nuFQSi-203" value="Provide Feedback and&lt;br&gt;&amp;nbsp;Rating for Artisans&amp;nbsp;&lt;br&gt;Produc and &lt;br&gt;Service Ubtained" style="html=1;verticalAlign=bottom;endArrow=block;curved=0;rounded=0;" parent="1" target="gJmVssM9Ugrq67nuFQSi-199" edge="1">
          <mxGeometry y="10" width="80" relative="1" as="geometry">
            <mxPoint x="290" y="1990" as="sourcePoint" />
            <mxPoint x="510" y="1990" as="targetPoint" />
            <mxPoint as="offset" />
          </mxGeometry>
        </mxCell>
        <mxCell id="gJmVssM9Ugrq67nuFQSi-206" value="Provide Feedback and Rating for Artisans&amp;nbsp;&lt;br&gt;Produc and Service Ubtained" style="html=1;verticalAlign=bottom;endArrow=block;curved=0;rounded=0;" parent="1" edge="1">
          <mxGeometry width="80" relative="1" as="geometry">
            <mxPoint x="71" y="1970" as="sourcePoint" />
            <mxPoint x="291" y="1970" as="targetPoint" />
            <mxPoint as="offset" />
          </mxGeometry>
        </mxCell>
        <mxCell id="gJmVssM9Ugrq67nuFQSi-207" value="Create New Record of&amp;nbsp; Cusotmer`s Feedabcd for&amp;nbsp; Product and Service Obtained" style="html=1;verticalAlign=bottom;endArrow=block;curved=0;rounded=0;" parent="1" target="gJmVssM9Ugrq67nuFQSi-63" edge="1">
          <mxGeometry width="80" relative="1" as="geometry">
            <mxPoint x="430" y="2007.5" as="sourcePoint" />
            <mxPoint x="2068" y="2008" as="targetPoint" />
          </mxGeometry>
        </mxCell>
        <mxCell id="gJmVssM9Ugrq67nuFQSi-210" value="" style="html=1;points=[[0,0,0,0,5],[0,1,0,0,-5],[1,0,0,0,5],[1,1,0,0,-5]];perimeter=orthogonalPerimeter;outlineConnect=0;targetShapes=umlLifeline;portConstraint=eastwest;newEdgeStyle={&quot;curved&quot;:0,&quot;rounded&quot;:0};" parent="1" vertex="1">
          <mxGeometry x="285" y="2070" width="10" height="30" as="geometry" />
        </mxCell>
        <mxCell id="gJmVssM9Ugrq67nuFQSi-211" value="" style="html=1;points=[[0,0,0,0,5],[0,1,0,0,-5],[1,0,0,0,5],[1,1,0,0,-5]];perimeter=orthogonalPerimeter;outlineConnect=0;targetShapes=umlLifeline;portConstraint=eastwest;newEdgeStyle={&quot;curved&quot;:0,&quot;rounded&quot;:0};" parent="1" vertex="1">
          <mxGeometry x="285" y="2120" width="10" height="40" as="geometry" />
        </mxCell>
        <mxCell id="gJmVssM9Ugrq67nuFQSi-212" value="DIsplay Display Customer`s&amp;nbsp; Feedback and Rating&lt;br&gt;for Artisan`s Product and Service Obtained" style="html=1;align=left;spacingLeft=2;endArrow=block;rounded=0;edgeStyle=orthogonalEdgeStyle;curved=0;rounded=0;" parent="1" target="gJmVssM9Ugrq67nuFQSi-211" edge="1">
          <mxGeometry x="0.0196" relative="1" as="geometry">
            <mxPoint x="290" y="2100" as="sourcePoint" />
            <Array as="points">
              <mxPoint x="320" y="2130" />
            </Array>
            <mxPoint as="offset" />
          </mxGeometry>
        </mxCell>
        <mxCell id="XZX8-9DoowzfNJNOM7mi-3" value="Create New Record of Cutomer`s DIgital Wallett" style="html=1;verticalAlign=bottom;endArrow=block;curved=0;rounded=0;" edge="1" parent="1">
          <mxGeometry width="80" relative="1" as="geometry">
            <mxPoint x="430" y="1740" as="sourcePoint" />
            <mxPoint x="1654.5" y="1740" as="targetPoint" />
          </mxGeometry>
        </mxCell>
        <mxCell id="XZX8-9DoowzfNJNOM7mi-5" value="" style="html=1;points=[[0,0,0,0,5],[0,1,0,0,-5],[1,0,0,0,5],[1,1,0,0,-5]];perimeter=orthogonalPerimeter;outlineConnect=0;targetShapes=umlLifeline;portConstraint=eastwest;newEdgeStyle={&quot;curved&quot;:0,&quot;rounded&quot;:0};" vertex="1" parent="1">
          <mxGeometry x="155" y="2190" width="10" height="40" as="geometry" />
        </mxCell>
        <mxCell id="XZX8-9DoowzfNJNOM7mi-7" value="" style="html=1;points=[[0,0,0,0,5],[0,1,0,0,-5],[1,0,0,0,5],[1,1,0,0,-5]];perimeter=orthogonalPerimeter;outlineConnect=0;targetShapes=umlLifeline;portConstraint=eastwest;newEdgeStyle={&quot;curved&quot;:0,&quot;rounded&quot;:0};" vertex="1" parent="1">
          <mxGeometry x="554" y="2205" width="10" height="40" as="geometry" />
        </mxCell>
        <mxCell id="XZX8-9DoowzfNJNOM7mi-8" value="Request for Create Chat/Forum" style="html=1;verticalAlign=bottom;endArrow=block;curved=0;rounded=0;" edge="1" parent="1" target="gJmVssM9Ugrq67nuFQSi-50">
          <mxGeometry width="80" relative="1" as="geometry">
            <mxPoint x="160" y="2200" as="sourcePoint" />
            <mxPoint x="240" y="2200" as="targetPoint" />
          </mxGeometry>
        </mxCell>
        <mxCell id="XZX8-9DoowzfNJNOM7mi-9" value="Request for Create&lt;br&gt;&amp;nbsp;Chat/Forum" style="html=1;verticalAlign=bottom;endArrow=block;curved=0;rounded=0;" edge="1" parent="1">
          <mxGeometry width="80" relative="1" as="geometry">
            <mxPoint x="425" y="2210" as="sourcePoint" />
            <mxPoint x="560" y="2210" as="targetPoint" />
          </mxGeometry>
        </mxCell>
        <mxCell id="XZX8-9DoowzfNJNOM7mi-10" value="" style="html=1;points=[[0,0,0,0,5],[0,1,0,0,-5],[1,0,0,0,5],[1,1,0,0,-5]];perimeter=orthogonalPerimeter;outlineConnect=0;targetShapes=umlLifeline;portConstraint=eastwest;newEdgeStyle={&quot;curved&quot;:0,&quot;rounded&quot;:0};" vertex="1" parent="1">
          <mxGeometry x="2414" y="2210" width="10" height="30" as="geometry" />
        </mxCell>
        <mxCell id="XZX8-9DoowzfNJNOM7mi-12" value="Connect to 3rd Party Chat/Forum SW Boundary" style="html=1;verticalAlign=bottom;endArrow=block;curved=0;rounded=0;" edge="1" parent="1">
          <mxGeometry width="80" relative="1" as="geometry">
            <mxPoint x="563" y="2217.5" as="sourcePoint" />
            <mxPoint x="2417" y="2217.4999999999995" as="targetPoint" />
          </mxGeometry>
        </mxCell>
      </root>
    </mxGraphModel>
  </diagram>
</mxfile>
